{
  "accessors": [
    {
      "bufferView": 2,
      "componentType": 5126,
      "count": 65532,
      "max": [
        0.9980589151382446,
        3.0086898803710938,
        0.9961962699890137
      ],
      "min": [
        -0.9980589151382446,
        1.0113098621368408,
        -0.9959980249404907
      ],
      "type": "VEC3"
    },
    {
      "bufferView": 2,
      "byteOffset": 786384,
      "componentType": 5126,
      "count": 65532,
      "max": [
        1.0,
        0.9999978542327881,
        1.0
      ],
      "min": [
        -1.0,
        -0.999998152256012,
        -0.9999993443489075
      ],
      "type": "VEC3"
    },
    {
      "bufferView": 1,
      "componentType": 5126,
      "count": 65532,
      "max": [
        1.0,
        0.9988420605659485
      ],
      "min": [
        0.0,
        0.0011630929075181484
      ],
      "type": "VEC2"
    },
    {
      "bufferView": 0,
      "componentType": 5125,
      "count": 382119,
      "type": "SCALAR"
    },
    {
      "bufferView": 2,
      "byteOffset": 1572768,
      "componentType": 5126,
      "count": 20679,
      "max": [
        0.9280807971954346,
        2.99275541305542,
        0.9961962699890137
      ],
      "min": [
        -0.9107727408409119,
        1.0210109949111938,
        -0.9961961507797241
      ],
      "type": "VEC3"
    },
    {
      "bufferView": 2,
      "byteOffset": 1820916,
      "componentType": 5126,
      "count": 20679,
      "max": [
        0.941084623336792,
        0.9997974038124084,
        0.999998152256012
      ],
      "min": [
        -0.9869710803031921,
        -0.9910244345664978,
        -1.0
      ],
      "type": "VEC3"
    },
    {
      "bufferView": 1,
      "byteOffset": 524256,
      "componentType": 5126,
      "count": 20679,
      "max": [
        1.0039317607879639,
        0.943117618560791
      ],
      "min": [
        0.0,
        0.01300652977079153
      ],
      "type": "VEC2"
    },
    {
      "bufferView": 0,
      "byteOffset": 1528476,
      "componentType": 5125,
      "count": 111801,
      "type": "SCALAR"
    }
  ],
  "asset": {
    "extras": {
      "author": "ree27703 (https://sketchfab.com/ree27703)",
      "license": "SKETCHFAB Standard (https://sketchfab.com/licenses)",
      "source": "https://sketchfab.com/3d-models/golf-ball-0f6ecd40b2ba42deb2f2946f3fcd4dde",
      "title": "Golf Ball"
    },
    "generator": "Sketchfab-16.21.0",
    "version": "2.0"
  },
  "bufferViews": [
    {
      "buffer": 0,
      "byteLength": 1975680,
      "name": "floatBufferViews",
      "target": 34963
    },
    {
      "buffer": 0,
      "byteLength": 689688,
      "byteOffset": 1975680,
      "byteStride": 8,
      "name": "floatBufferViews",
      "target": 34962
    },
    {
      "buffer": 0,
      "byteLength": 2069064,
      "byteOffset": 2665368,
      "byteStride": 12,
      "name": "floatBufferViews",
      "target": 34962
    }
  ],
  "buffers": [
    {
      "byteLength": 4734432,
      "uri": "scene.bin"
    }
  ],
  "materials": [
    {
      "doubleSided": true,
      "name": "Scene_-_Root",
      "pbrMetallicRoughness": {
        "metallicFactor": 0.0,
        "roughnessFactor": 0.6
      }
    }
  ],
  "meshes": [
    {
      "name": "OUT_golfball__0",
      "primitives": [
        {
          "attributes": {
            "NORMAL": 1,
            "POSITION": 0,
            "TEXCOORD_0": 2
          },
          "indices": 3,
          "material": 0,
          "mode": 4
        }
      ]
    },
    {
      "name": "OUT_golfball__0",
      "primitives": [
        {
          "attributes": {
            "NORMAL": 5,
            "POSITION": 4,
            "TEXCOORD_0": 6
          },
          "indices": 7,
          "material": 0,
          "mode": 4
        }
      ]
    }
  ],
  "nodes": [
    {
      "children": [
        1
      ],
      "matrix": [
        1.0,
        0.0,
        0.0,
        0.0,
        0.0,
        2.220446049250313e-16,
        -1.0,
        0.0,
        0.0,
        1.0,
        2.220446049250313e-16,
        0.0,
        0.0,
        0.0,
        0.0,
        1.0
      ],
      "name": "Sketchfab_model"
    },
    {
      "children": [
        2
      ],
      "matrix": [
        0.009999999776482582,
        0.0,
        0.0,
        0.0,
        0.0,
        0.0,
        0.009999999776482582,
        0.0,
        0.0,
        -0.009999999776482582,
        0.0,
        0.0,
        0.0,
        0.0,
        0.0,
        1.0
      ],
      "name": "dfdcf9af9e6f41fe840235ddf0a4daf9.fbx"
    },
    {
      "children": [
        3
      ],
      "name": "RootNode"
    },
    {
      "children": [
        4,
        5
      ],
      "name": "OUT_golfball"
    },
    {
      "mesh": 0,
      "name": "OUT_golfball__0"
    },
    {
      "mesh": 1,
      "name": "OUT_golfball__0"
    }
  ],
  "scene": 0,
  "scenes": [
    {
      "name": "Sketchfab_Scene",
      "nodes": [
        0
      ]
    }
  ]
}
